<svg version="1" xmlns="http://www.w3.org/2000/svg" width="533.333" height="533.333" viewBox="0 0 400.000000 400.000000"><path d="M.2 22c.1 12.2.5 22.3 1 22.6 1.1.7 1 5.2-.2 5.9-.7.4-1 59.8-1 175.1V400h106c100.5 0 105.9-.1 105.3-1.8-.6-1.6-.5-1.6 1.4.1 1.8 1.6 7.8 1.7 94.6 1.7H400V292.9l-2.6.3c-2.3.3-2.7-.1-3-2.7-.3-2.7-.1-2.8 1-1.3.7 1 1.9 1.8 2.7 1.8.9 0 .8-.4-.4-1.2-.9-.7-1.8-2.4-1.9-3.8-.3-2.1.1-2.5 2-2.3 1.2.2 2.2-.2 2.2-.7 0-.6-1.1-1-2.5-1-2.5 0-3.4-1.4-1.6-2.4.5-.4 1.2 0 1.5.6.3.7.3.3.1-.8-.3-1.3.1-2.8 1-3.7 1.8-1.9 1.9-2.8.3-2.4-.6.1-1.3-.7-1.5-1.8-.2-1.1-.9-3-1.5-4.2-1.6-3.2-.3-5.6 2.4-4.8 1.6.4 1.9.3.9-.3-.9-.7-1-1.2-.2-1.6.7-.5 1.1-5.5 1.1-14.7 0-11.2-.3-13.9-1.4-13.9-1.7 0-1.6-3 .2-4.9 1.1-1.2 1.1-1.5 0-2.2-1.1-.8-1.1-1.1.1-1.8 1-.6 1-1 .1-1.6-.9-.6-.9-.9.1-1.5 1-.7 1-1.2 0-2.3-.8-1-.9-1.7-.1-2.2.7-.4.7-1.2-.1-2.6-.6-1.1-.8-2.7-.5-3.5.4-.9-.4-1.8-2-2.4-3.3-1.3-3.4-1.3-2.7.7.4 1.1.3 1.4-.5.9-.7-.4-1.2-1.2-1.2-1.8 0-.6-.8-2-1.7-3.1-1-1.1-1.2-1.7-.4-1.2 1 .6 1.2.2.6-1.4-.9-3.1.4-2.6 1.6.6.8 2 1.3 2.4 1.7 1.3.3-.8 1.1-1.9 1.8-2.3.8-.4 1.4-1.4 1.4-2.2 0-.7.6-1.6 1.3-1.9.6-.3-.9-.4-3.5-.2-3.6.3-5.3-.1-6.9-1.5-2.2-1.9-2.2-1.9 4.9-1.9h7.2v-80.5c0-79.8 0-80.5-2-80.5-1.1 0-2 .5-2 1.1 0 .5-.5.7-1 .4-.6-.3-1.5.6-2 2s-1.4 2.4-1.9 2.1c-1.3-.8-.1-4.8 1.8-6.4 1.4-1.1 1.4-1.1-.3-.6-1.5.6-1.7.3-1.2-1.4.6-1.8.4-2.1-.9-1.6-1.2.5-1.6 1.5-1.2 3.7.4 2.7.3 2.8-1 1.2-.7-1.1-1.3-1.7-1.4-1.4 0 .2-.2 1.4-.5 2.6-.3 1.7 0 2.1 1.1 1.7.9-.4 1.5 0 1.5 1 0 .9-.8 1.7-1.7 1.8-4.8.4-5.9.4-6.9-.4-.7-.5-1.3-.2-1.6 1-.4 1.4-1.3 1.8-3.7 1.6-1.7-.1-3.4.2-3.7.7-.3.5-1.2.9-2.1.9-1.1 0-1.4-.7-1.1-2.4.4-1.7.1-2.3-.8-1.9-.9.3-1.2 1.4-.8 2.9.7 2.6-2.1 6.5-2.9 4.1-.3-.8-1.1-.6-2.7.8-1.3 1.1-2 1.4-1.6.7.4-.6.2-1.2-.4-1.2-.6 0-.9-.4-.5-.9.3-.6-1.2-.8-3.7-.5-3.5.3-4 .2-2.4-.7 1-.6 3.2-.9 5-.6 4 .6 5.4 0 6.8-2.6 1.1-2.1 1-2.1-.9-.5-1.4 1.3-3.9 1.8-9.1 2-6.6.1-9.1 1-5.9 2.1.6.2.3.2-.8 0-1.1-.3-3.9-.5-6.3-.5-2.3 0-4.5-.4-4.8-.9-.3-.5-.9-.7-1.3-.4-.4.2-3.9.7-7.7 1-4.9.4-6.5.2-5.4-.5 1.1-.8.8-.9-1.4-.4-1.8.4-3.1.2-3.5-.5-1-1.5-21.2-3.3-22.5-2-.6.6-.5.9.4.9.7 0 1 .3.7.6-.4.4-1.3.1-2.2-.6-.8-.7-1.5-1-1.5-.6s-1.1-.1-2.4-.9c-1.6-1.1-2.6-1.3-3.1-.6-.3.6.1 1.1 1 1.1 2.9 0 .6 1.8-2.8 2.2-3.1.3-3.3.2-3.1-2.4.1-1.6-.2-3.1-.7-3.4-.5-.3-.9-.1-.9.5s-.8.8-1.7.5c-1.2-.4-.9.1.7 1.5 1.8 1.5 2.1 2.1.9 2.1-.8 0-2-.5-2.7-1.2-.9-.9-1.5-.9-2.4 0-.9.9-.8 1.2.6 1.2 1 0 2.9.9 4.3 2 1.8 1.4 2.1 2 1 2-.8 0-1.7-.4-1.9-.8-.1-.5-1.6-1.2-3.3-1.6-2.9-.6-2.9-.6-1 1s1.9 1.6-1.2 1.2c-1.8-.2-2.9 0-2.6.4.3.5 2 .8 3.8.6 1.9-.1 3.7.1 4.1.5.4.4 0 .7-1 .7-.9 0-1.4.5-1.1 1.1.4.5-1 .3-3.2-.6-2.1-.9-3.9-2-4.1-2.5-.2-.5-1-.6-1.8-.3-.7.3-1.6-.1-1.9-.8-.4-1-2.6-1.4-8.5-1.2-4.4 0-8.8.4-9.7.7-2.2.9-5.2-2.1-4.6-4.5.3-1.1 0-1.9-.7-1.9s-1 .7-.6 1.6c.4 1 .1 1.4-.6 1.2-2.3-.8-2.1-4.5.2-5.1 1.3-.3 2.2-1.6 2.6-3.6.7-3.2 1.8-3.9 2.9-2.1.5.8 1.1.7 2.1-.1 1-.8 1.4-.8 1.4 0 0 1-1.4 1.5-3.3 1.2-2.3-.4.4 2.5 3.4 3.6 3 1.2 3.2 1.2 1.5-.1-1-.8-1.5-2-1.1-2.6.5-.8 1.1-.8 2.1.1 1.2 1 1.3.9.8-.4-.3-.9.1-2.3.9-3.2 1.4-1.4 1.7-1.4 2.5 0 .8 1.5 1 1.5 2.2.1 1.1-1.5 1.4-1.5 2.6.1 1.1 1.5 1.3 1.5 1.4.3 0-.9-.6-2.2-1.2-2.9-1.1-1-1-1.1.5-.6 1 .4 1.7.2 1.7-.5 0-.6.5-.8 1-.5.8.5.7 1.1-.1 2.1-.9 1.1-.7 1.4 1.6 1.4 2.2 0 2.6.4 2.2 2-.3 1.1-.1 1.8.4 1.4 1.5-.9 1-5.4-.6-5.4-1.8 0-2-1.6-.3-2.6.7-.5.8-.3.3.6-.6 1-.4 1.2.8.7.9-.3 1.8-.1 2 .6.2.7.8.9 1.2.5.5-.5 0-1.6-.9-2.7-1.7-1.8-1.7-2 .1-3.1 1.3-.9 1.4-1 .2-.7-1 .4-2.1-.4-2.9-1.9-.8-1.3-2.2-2.4-3.2-2.4-1.1 0-1.6-.4-1.3-1 .7-1.1 5.5-1 5.5.1 0 .4.8 1 1.8 1.4 1.4.5 1.5.4.5-.6-1.8-1.8-1.6-2.7.4-2.5 1 0 1.9-.7 2.1-1.8.3-1.4 0-1.7-1.2-1.3-.9.4-1.6.2-1.6-.3 0-1.7 1.8-2 3-.5 1 1.3 1.6 1.3 4.8-.1 4.7-1.9 5-2.4 2.8-3.6-1.5-.8-1.6-1.2-.5-1.9.9-.6-.1-.8-2.8-.7-3.1.1-4.3.6-4.6 2-.5 1.9-3.7 2.6-3.7.7 0-.5.5-.7 1.1-.3.7.4 1 .1.7-.7C272.4.7 251.3.5 136.1.2L-.1 0l.3 22zm267.9-3.7c-.1 1.2-1.5.9-1.9-.4-.3-.6.1-1 .8-.8.6.3 1.1.8 1.1 1.2zm-13.7 3.8c-1 1.6-2.3.9-2.1-1 .1-1.5.4-1.7 1.4-.9.7.5 1 1.4.7 1.9zM113 29.4c0 .2-.8 1-1.7 1.7-1.6 1.3-1.7 1.2-.4-.4 1.3-1.6 2.1-2.1 2.1-1.3zm-75 1.1c0 .3-1.1 1-2.5 1.5-1.3.5-2.3 1.5-2.1 2.2.1.7.1 1-.1.5-.3-.4-1.2-.7-2.1-.7-1-.1-.2-.9 1.8-2 3.6-2 5-2.4 5-1.5zm200.6 3.2c-1.1 1.1-1.7-.4-.9-2.3.7-1.8.8-1.8 1.1-.1.2 1 .1 2.1-.2 2.4zm-1.6.8c.7.9 1 1.8.7 2.1-.3.4.1 1.3.9 2.1 2.1 2.2.9 2.8-1.7.9-1.3-.9-2.4-2.7-2.6-4.1-.4-2.8.8-3.3 2.7-1zM26 36.4c0 .2-.7.7-1.6 1-.8.3-1.2.2-.9-.4.6-1 2.5-1.4 2.5-.6zm-11 5.1c0 .6-5.6 3.5-6.7 3.5-.4-.1.8-.9 2.7-2 3.9-2.2 4-2.2 4-1.5zm14 3.2c-3 2-6.2 4.4-7 5.3-1.4 1.6-5.3 4-6.3 4-1.7 0 .4-3.4 2.9-4.6 1.6-.9 3.7-2.3 4.7-3.1 1.8-1.7 8.5-5.1 10.2-5.2.5-.1-1.5 1.6-4.5 3.6zM290.5 42c.3.5-.1 1-1 1s-1.3-.5-1-1c.3-.6.8-1 1-1 .2 0 .7.4 1 1zm85.2.6c-.3.3-1.2.4-1.9.1-.8-.3-.5-.6.6-.6 1.1-.1 1.7.2 1.3.5zm4.8.4c-.3.5-1.4 1-2.3.9-1.4 0-1.3-.2.3-.9 2.7-1.1 2.7-1.1 2 0zm-117.8.6c-.3.3-1.2.4-1.9.1-.8-.3-.5-.6.6-.6 1.1-.1 1.7.2 1.3.5zm23.7 1c.6 1.5.4 1.5-1.1.3-1-.7-2-1.5-2.2-1.6-.2-.2.3-.3 1.1-.3.9 0 1.9.7 2.2 1.6zm84.2-.1c-.8.8-1.7 1.5-2 1.5-.3 0-.3-.7 0-1.5.4-.8 1.3-1.5 2.1-1.5 1.2 0 1.2.2-.1 1.5zM7 46c0 .5-.5 1-1.1 1-.5 0-.7-.5-.4-1 .3-.6.8-1 1.1-1 .2 0 .4.4.4 1zm276.5 3c1.3 0 2.7.4 3 1 .9 1.5-4.9 1.2-6.3-.2-.9-.9-1.5-.9-2-.2-.4.6-3.1.8-7.2.3-5.2-.5-5.7-.6-2.5-.9 2.2-.1 5-.1 6.2 0 1.2.1 3-.3 4-.9 1.1-.6 1.9-.6 2.1 0 .2.5 1.4.9 2.7.9zm-36.8-.4c-.3.3-1.2.4-1.9.1-.8-.3-.5-.6.6-.6 1.1-.1 1.7.2 1.3.5zm88.6 5.1c-1.3.2-3.3.2-4.5 0-1.3-.2-.3-.4 2.2-.4s3.5.2 2.3.4zm-94.8 7.8c-.5.3-6.9.9-14 1.4-28.5 2.1-33.7 9-33.4 44.1.1 9.8-.1 18.1-.3 18.6-.3.5 0 2.5.8 4.4l1.2 3.5.1-2.9c.1-4.1 1.8-2.1 2.5 2.9.8 5.6 3.4 14.5 3.5 11.7.1-2.4 2.1-3.1 2.1-.8 0 .8.8 2.1 1.8 2.8 2.6 1.9 8.3 10.5 8.5 12.8.1 1.1 1 2.3 2 2.6 2.1.7 5.4 3.2 10.4 8.1 1.8 1.7 3.3 2.9 3.3 2.6 0-.3 1.5.8 3.3 2.3 6 5.1 12.3 7.3 20 7 4.2-.1 7.1-.7 7.6-1.5.5-.7.7-6.4.6-12.7-.1-6.3.1-11.7.5-11.9.3-.2.5-2 .4-3.9-.2-2 0-3.6.5-3.6.4 0 1.2 5.7 1.6 12.7.4 7.1.8 13.7.9 14.8.2 3.5 1.4 4.4 5.3 3.9 5.1-.6 6.3-2 6.4-7.3l.1-4.6 1.6 4.7c1.6 5 2.4 5.3 8.2 3.1.8-.4 2-.7 2.5-.8 1.3-.2 4.6-1.4 6.7-2.6 1-.5 2.6-.9 3.5-.9 1.4 0 11.1-2.4 21.8-5.3 15-4.2 29-9.1 29.9-10.6.7-1.1 1-1.1 1.7 0 .5.9.6-.3.3-2.8-.3-2.9 0-4.6 1.1-5.7 1.5-1.5 1.5-1.6-.2-1.6-1.7-.1-1.7-.1 0-1.4.9-.7 1.7-1.8 1.7-2.5 0-.6.4-1.1.9-1.1.6 0 1.1-1.9 1.3-4.3l.3-4.2 1.5 3c1 1.9 2.2 2.9 3.3 2.7.9-.2 1.7.3 1.7 1s.5 2 1 2.8c.9 1.3 1.1 1.3 1.9 0 .7-1 .6-1.7-.2-2.2-.9-.6-.9-1 .1-1.7 1.5-.9 2.4-6.1 1.2-7.6-.4-.6-.4-4.6.1-8.9.4-4.4.6-8.3.3-8.7-.2-.4 0-1 .6-1.4.6-.4.7-1.2.3-1.8-.4-.7-.9-2.7-1-4.6-.1-1.9-.6-3.7-1-4-.8-.6-1.5-2.7-1.6-4.8 0-1.4-1.1-1.8-6.9-2.7-4-.7-5.4-2.7-3.6-5.5 1.5-2.4.4-4.9-2.6-6.1-1.3-.5-2.8-1.6-3.3-2.4-.4-.8-3-2.4-5.8-3.5-8.3-3.5.3-1.5 11.5 2.6 11.5 4.3 16 6.5 18.1 8.9 2.5 2.9 3.7 11.8 3.5 24.2-.2 6.2.1 10.8.4 10.1.5-.7 1-.8 1.4-.1.3.6 0 1.6-.7 2.4-1.3 1.3-1.3 3.1-.1 8 .3 1.6.2 2.8-.2 2.8-.5 0-.9 3.7-.9 8.1 0 6.7-.4 8.7-2.2 11.4-1.7 2.4-2.8 3.1-4.5 2.8-1.3-.2-3.9.3-5.8 1.1-2.5 1.1-2.9 1.6-1.5 1.6l2 .1-2 .9c-1.1.5-2.7.9-3.5.9-1.3.1-1.3 0 0-.9 2.8-1.8-.6-1-22.5 5.5-10.6 3.1-59 16.3-72 19.6-5.3 1.4-12.1 2.3-16.5 2.4-7.9 0-11-1.2-17-6.7-1.4-1.3-3.4-3-4.5-3.8-1.9-1.5-1.9-1.5-.1 1.5l1.9 3-3.3-3c-6-5.5-10.5-10.2-11.9-12.6-1.3-2.2-1.3-2.3.2-1 2.1 1.7 2.2.2.2-2.5-1.2-1.5-1.6-1.6-2.4-.6-.6 1.1-1.9.2-5.3-3.5-14.3-15.5-15.7-17.7-16.4-25.2-1.1-12.2-1.3-21.1-.5-21.1.5 0 .5-1.7-.1-4.2-.5-2.3-.6-5.3-.3-6.6.3-1.2.3-2.8-.1-3.3-.8-1.3-1.2-32.6-.5-33.7.3-.5 8-1.4 17.1-2.1 9.1-.7 17.6-1.3 19-1.5 5-.4 17.5-.5 16.5-.1zm17.8 1.2c-.7.2-1.9.2-2.5 0-.7-.3-.2-.5 1.2-.5s1.9.2 1.3.5zm5 0c-.7.2-1.9.2-2.5 0-.7-.3-.2-.5 1.2-.5s1.9.2 1.3.5zm11.4.9c-.3.3-1.2.4-1.9.1-.8-.3-.5-.6.6-.6 1.1-.1 1.7.2 1.3.5zm19.6 1.1c-.7.2-2.1.2-3 0-1-.3-.4-.5 1.2-.5 1.7 0 2.4.2 1.8.5zm15.5 1c-1.5.2-4.2.2-6 0-1.8-.2-.6-.4 2.7-.4 3.3 0 4.8.2 3.3.4zm15.2 2.4c4.7 2 4.6 2-7-.6-5.4-1.3-5.4-1.3-1.5-1.3 2.2-.1 6 .8 8.5 1.9zm8 2.9c.8.5 1.1 1 .5 1-.5 0-1.7-.5-2.5-1s-1-1-.5-1c.6 0 1.7.5 2.5 1zm54.8 11.5c-.3.3-.9-.2-1.2-1.2-.6-1.4-.5-1.5.5-.6.7.7 1 1.5.7 1.8zm-35.4 4.1c.4 1 .1 1.4-.6 1.2-1.5-.5-2.3-2.8-1-2.8.5 0 1.3.7 1.6 1.6zm4.6 75.9c0 .2-1.9.9-4.2 1.5-2.4.6-5.1 1.5-6 2-1.1.6-1.8.7-1.8.1s2.1-1.6 4.8-2.4c5.1-1.6 7.2-2 7.2-1.2zm-26 8c0 .6-7.3 2.5-7.8 2-.2-.2 1.1-.8 2.9-1.4 4.1-1.1 4.9-1.2 4.9-.6zm-18.5 5.5c-.3.5-1.3 1-2.1 1s-1.2-.5-.9-1c.3-.6 1.3-1 2.1-1s1.2.4.9 1zm75.5 27.4c0 .2-.7.7-1.6 1-.8.3-1.2.2-.9-.4.6-1 2.5-1.4 2.5-.6zm5.7 30.2c-.3.3-1.2.4-1.9.1-.8-.3-.5-.6.6-.6 1.1-.1 1.7.2 1.3.5zm2.8 41.4c.3.5.1 1-.4 1-.6 0-1.1-.5-1.1-1 0-.6.2-1 .4-1 .3 0 .8.4 1.1 1zM173 303c.6 1.1.7 2 .2 2-.6 0-1.2-.9-1.5-2-.3-1.1-.3-2-.1-2 .2 0 .8.9 1.4 2zm71.4.4c-.3.8-1.3 1.2-2.5.9-1.6-.5-1.8-.8-.7-1.4 2-1.3 3.8-1.1 3.2.5zm4.4 2.9c2.2 2.6-2.2 5.3-5.2 3.2-1.6-1.2-1.6-1.4.3-2 1.2-.3 1.9-1.1 1.6-1.6-.9-1.4 2.1-1.1 3.3.4zm18.9 10.9c-.3.8-.6.5-.6-.6-.1-1.1.2-1.7.5-1.3.3.3.4 1.2.1 1.9zm-175.5 9.2c2.2-.6 2.2-.6-.2 1.4l-2.5 2-.7-2.1c-.9-3.4-.8-5.5.3-2.9.7 1.9 1.4 2.2 3.1 1.6zm-.2 6c0 .3-.4.8-1 1.1-.5.3-1 .1-1-.4 0-.6.5-1.1 1-1.1.6 0 1 .2 1 .4zM377.5 360c-.3.5-1.2 1-1.8 1-.7 0-.6-.4.3-1 1.9-1.2 2.3-1.2 1.5 0z"/><path d="M195 137.4c0 .8.4 1.7.9 2 .5.4.7-.3.4-1.4-.6-2.3-1.3-2.6-1.3-.6zM218 170.5c1.3 1.4 2.5 2.5 2.7 2.5.9 0-3.3-4.9-4.1-5-.5 0 .1 1.1 1.4 2.5zM284.5 1c-.8 1.3.5 1.3 2.5 0 1.3-.8 1.3-1-.2-1-.9 0-2 .4-2.3 1zM298 1c0 .5.5 1 1 1 .6 0 1-.5 1-1 0-.6-.4-1-1-1-.5 0-1 .4-1 1zM320 .4c0 .2 1.1.6 2.5.8 1.3.3 2.2.1 1.9-.3-.5-.9-4.4-1.3-4.4-.5zM381 1.1c0 .7.9.9 2.5.5 1.5-.4 2.5-.2 2.5.4 0 .6.5.8 1.1.4.8-.4.9.1.4 1.7-.3 1.3-.3 1.9.2 1.3.9-1.3 5.3-2.9 5.3-1.9 0 .3-1 1.6-2.1 2.8-1.2 1.2-1.8 1.6-1.4.9.6-1.1.3-1.2-1.4-.3-2.3 1.3-2.9 2.6-.8 1.8.8-.3 2-.1 2.8.4 1.2.7 1.2.9-.1.9-.8 0-3.4 1.7-5.7 3.8-3.3 2.9-4 4-3.2 5.2.9 1.3 1 1.2.5-.3-.3-.9-.1-1.7.4-1.7.6 0 1 .4 1 1 0 1.7 1.8 1.1 2.3-.8.4-1.5.6-1.4 1.2.5.4 1.3 1.4 2.1 2.6 2 2.4-.2 2.5-1.4.2-2-1.4-.4-1.2-.5.5-.6 1.2 0 2.2.3 2.2.9 0 .5.5 1 1 1 .6 0 1-.7 1-1.6 0-.8-.4-1.3-.8-1-1.1.6-3.8-1.1-3-1.9.3-.4 1.6-.2 2.7.5 2.3 1.2 2.4 1.1 3.5-4.3.4-1.5 1.1-2.7 1.6-2.7s.7.7.4 1.5c-.4.8-.2 1.5.4 1.5 1.2 0 1.4-9.7.2-10.5-.5-.3-1.1-.1-1.5.5-.3.5-1.2 1-1.8 1-.7 0-.6-.4.3-1 1.2-.8 1.1-1-.7-1-1.3 0-2.3.6-2.3 1.2 0 .9-.3 1-.8.2-1-1.5-11.2-1.8-11.2-.3zM396 4c0 .5-.4 1-1 1-.5 0-1-.5-1-1 0-.6.5-1 1-1 .6 0 1 .4 1 1zm-.3 2.6c-.3.3-1.2.4-1.9.1-.8-.3-.5-.6.6-.6 1.1-.1 1.7.2 1.3.5zm-.7 4.8c0 .3-.4.8-1 1.1-.5.3-1 .1-1-.4 0-.6.5-1.1 1-1.1.6 0 1 .2 1 .4zM371.5 7c-.3.5.1 1 .9 1 .9 0 1.6-.5 1.6-1 0-.6-.4-1-.9-1-.6 0-1.3.4-1.6 1zM276.2 9.9c-1 .6-1 1 .3 2.1s1.5.9 1.5-.9c0-2.4 0-2.4-1.8-1.2zM305 10c-1.2.8-1.1 1 .7 1 1.2 0 2.5-.5 2.8-1 .8-1.3-1.5-1.3-3.5 0zM279.3 13.3c-.1 3-.1 3.1.8.8.5-1.4.6-2.8.2-3.2-.4-.4-.9.6-1 2.4zM398 14.4c0 .8-.5 1.6-1.2 1.8-.7.3-.9 1.4-.4 3.2.4 1.5 1.2 2.6 1.9 2.3 1.4-.4 2-8.7.6-8.7-.5 0-.9.6-.9 1.4zm.6 5.3c-1 1-1.9-.5-1-1.8.6-1.1.8-1.1 1.2 0 .2.7.1 1.5-.2 1.8zM276.5 17c-.3.5-.1 1 .4 1 .6 0 1.1-.5 1.1-1 0-.6-.2-1-.4-1-.3 0-.8.4-1.1 1zM276.3 22.7c-.7.2-1.3 1-1.3 1.6 0 .8.3.8 1.1 0 .6-.6 1.8-.9 2.5-.6.8.3 1.4 0 1.4-.6 0-1.1-1.6-1.3-3.7-.4zM391.6 23.1c.2.4-.1.9-.8 1.1-.7.3-.3.7.9 1 1.5.4 2.3 0 2.6-1.2.3-1.3-.1-1.8-1.3-1.7-1 .1-1.7.4-1.4.8zM280.6 24.5c-.9 2.6-.7 3.2.5 1.2.6-1 .9-2.1.6-2.3-.2-.3-.7.2-1.1 1.1zM398.5 24c-.3.5-.1 1 .4 1 .6 0 1.1-.5 1.1-1 0-.6-.2-1-.4-1-.3 0-.8.4-1.1 1zM395.7 28.7c.7 1.8 4.3 1.6 4.3-.2 0-.9-.9-1.4-2.4-1.3-1.5.1-2.2.7-1.9 1.5zM382.8 28.7c.7.3 1.6.2 1.9-.1.4-.3-.2-.6-1.3-.5-1.1 0-1.4.3-.6.6zM386 29.1c0 .5.5.7 1 .4.6-.3 1-.8 1-1.1 0-.2-.4-.4-1-.4-.5 0-1 .5-1 1.1zM377.9 33.2c.4 2.8.6 2.9.9.9.2-1.3 0-2.7-.5-3.2-.6-.6-.7.3-.4 2.3zM258.1 32.6c0 1.1.3 1.4.6.6.3-.7.2-1.6-.1-1.9-.3-.4-.6.2-.5 1.3zM244 32.4c0 .2.7.7 1.6 1 .8.3 1.2.2.9-.4-.6-1-2.5-1.4-2.5-.6zM295.8 32.7c.6.2 1.8.2 2.5 0 .6-.3.1-.5-1.3-.5-1.4 0-1.9.2-1.2.5zM374 33c-.8.5-1.2 1.1-1 1.4.3.2 1.4-.2 2.4-1 2.2-1.5 1-1.9-1.4-.4zM381.3 35.2c-.2 1.8 0 2 .7.8 1.2-1.8 1.3-3 .2-3-.4 0-.9 1-.9 2.2zM243.5 35c.3.5.8 1 1.1 1 .2 0 .4-.5.4-1 0-.6-.5-1-1.1-1-.5 0-.7.4-.4 1zM271 35c0 .5.5 1 1.1 1 .5 0 .7-.5.4-1-.3-.6-.8-1-1.1-1-.2 0-.4.4-.4 1zM295 36.1c0 .5.9.9 2 .9s2-.2 2-.4-.9-.6-2-.9c-1.1-.3-2-.1-2 .4zM283 37.4c0 .9.5 1.6 1 1.6.6 0 1-.4 1-.9 0-.6-.4-1.3-1-1.6-.5-.3-1 .1-1 .9zM374.1 37.7c0 1 .3 1.3.6.5.7-1.7 2.1-1.5 2.7.5.4 1.4.4 1.4.3-.2-.3-2.6-3.7-3.4-3.6-.8zM246 37.9c0 .9 3 2.4 3.6 1.8.2-.1-.6-.8-1.6-1.5-1.1-.7-2-.8-2-.3zM355.5 38c-.3.6.1.7.9.4 1.8-.7 2.1-1.4.7-1.4-.6 0-1.3.4-1.6 1zM251 40c0 .5.5 1 1.1 1 .5 0 .7-.5.4-1-.3-.6-.8-1-1.1-1-.2 0-.4.4-.4 1zM255 40c0 .5.9 1 2 1s2-.5 2-1c0-.6-.9-1-2-1s-2 .4-2 1zM340.8 40.7c.6.2 1.8.2 2.5 0 .6-.3.1-.5-1.3-.5-1.4 0-1.9.2-1.2.5zM395.7 203.6c-1.3 1.3-.7 2.3 1.3 2.1 1.1-.1 1.9-.6 1.7-1.1-.4-1.3-2.1-1.8-3-1z"/></svg>